<?xml version="1.0" encoding="UTF-8" standalone="no"?>
<!-- Uploaded to: SVG Repo, www.svgrepo.com, Generator: SVG Repo Mixer Tools -->

<svg
   width="800px"
   height="800px"
   viewBox="0 0 48 48"
   version="1.1"
   id="svg3"
   sodipodi:docname="discord.svg"
   inkscape:export-filename="discord.svg"
   inkscape:export-xdpi="96"
   inkscape:export-ydpi="96"
   inkscape:version="1.4.2 (f4327f4, 2025-05-13)"
   xmlns:inkscape="http://www.inkscape.org/namespaces/inkscape"
   xmlns:sodipodi="http://sodipodi.sourceforge.net/DTD/sodipodi-0.dtd"
   xmlns="http://www.w3.org/2000/svg"
   xmlns:svg="http://www.w3.org/2000/svg">
  <defs
     id="defs3" />
  <sodipodi:namedview
     id="namedview3"
     pagecolor="#ffffff"
     bordercolor="#000000"
     borderopacity="0.25"
     inkscape:showpageshadow="2"
     inkscape:pageopacity="0.0"
     inkscape:pagecheckerboard="0"
     inkscape:deskcolor="#d1d1d1"
     inkscape:zoom="0.729375"
     inkscape:cx="-466.83805"
     inkscape:cy="830.16281"
     inkscape:window-width="2560"
     inkscape:window-height="1369"
     inkscape:window-x="1912"
     inkscape:window-y="-8"
     inkscape:window-maximized="1"
     inkscape:current-layer="svg3" />
  <g
     id="Layer_2"
     data-name="Layer 2">
    <g
       id="invisible_box"
       data-name="invisible box">
      <rect
         width="48"
         height="48"
         fill="none"
         id="rect1" />
    </g>
    <g
       id="Icons">
      <g
         id="g3">
        <path
           d="M20.1,20.5a2.3,2.3,0,0,0-2.2,2.4,2.3,2.3,0,0,0,2.2,2.4,2.4,2.4,0,0,0,0-4.8Z"
           id="path1" />
        <path
           d="M28,20.5a2.4,2.4,0,1,0,2.2,2.4A2.3,2.3,0,0,0,28,20.5Z"
           id="path2" />
        <path
           d="M38.5,2H9.5A4.5,4.5,0,0,0,5,6.5V36.3a4.5,4.5,0,0,0,4.5,4.5H34.1l-1.2-4.1,2.8,2.7,2.6,2.4L43,46V6.5A4.5,4.5,0,0,0,38.5,2ZM30.2,30.7l-1.5-1.8a6.9,6.9,0,0,0,4-2.6,15.1,15.1,0,0,1-2.5,1.3,14.6,14.6,0,0,1-3.2,1,15,15,0,0,1-5.6,0,20.2,20.2,0,0,1-3.2-1l-1.6-.7h-.2c0-.1,0-.1-.1-.1l-.6-.4a6.9,6.9,0,0,0,3.8,2.6l-1.4,1.8a8,8,0,0,1-6.7-3.3,29,29,0,0,1,3.2-12.8,10.3,10.3,0,0,1,6.1-2.3l.2.2a15.4,15.4,0,0,0-5.7,2.9l1.3-.6a12.7,12.7,0,0,1,4.9-1.4h.4a20.6,20.6,0,0,1,4.3,0,16.3,16.3,0,0,1,6.6,2.1,13.5,13.5,0,0,0-5.4-2.8l.3-.3a10.3,10.3,0,0,1,6.1,2.3,29.7,29.7,0,0,1,3.1,12.8S35,30.6,30.2,30.7Z"
           id="path3" />
      </g>
    </g>
  </g>
  <path
     style="fill:#d4aa00;stroke-width:1.37104"
     d="m 675.92117,729.05566 c -48.67273,-43.48911 -64.70359,-58.25573 -99.97404,-92.08976 -32.5975,-31.26994 -30.77493,-32.58293 -17.43849,12.56281 l 8.8091,29.82005 H 360.00322 c -141.98046,0 -209.87831,-0.46478 -215.44979,-1.47483 -24.99881,-4.532 -48.632651,-25.38701 -57.137118,-50.41901 l -3.097546,-9.1173 -0.381148,-255.69837 c -0.259057,-173.79151 0.08086,-258.77263 1.061151,-265.295634 0.894499,-5.952111 3.511101,-13.939885 6.889217,-21.030903 9.129664,-19.164105 23.866954,-31.6427 46.586734,-39.446656 7.28697,-2.502982 16.07531,-2.590136 261.18252,-2.590136 h 253.64182 l 9.65419,3.037479 c 24.9309,7.843958 46.20614,30.960987 51.311,55.752977 0.99562,4.835289 1.33428,110.301203 1.0884,338.960863 l -0.35693,331.94154 z M 313.76845,499.14774 c 6.14201,-7.86807 11.16728,-14.86553 11.16728,-15.54992 0,-0.68438 -2.62211,-2.02578 -5.8269,-2.98088 -10.60854,-3.16156 -25.70142,-11.49749 -36.58807,-20.20788 -11.96696,-9.57476 -14.71272,-13.36624 -8.61963,-11.90242 2.05361,0.49337 5.89321,1.95914 8.53246,3.25728 23.41449,11.5167 62.30495,24.02401 85.6898,27.55816 17.8497,2.69764 55.49996,2.34864 74.03599,-0.68626 27.52562,-4.50676 64.92386,-17.34798 86.53672,-29.71359 8.56386,-4.89975 9.71945,-5.01505 6.46539,-0.64514 -7.50787,10.08238 -30.61772,24.38146 -48.83965,30.21923 l -9.30799,2.982 12.73558,15.44385 12.73557,15.44386 12.58981,-0.84859 c 34.79587,-2.34534 67.60968,-16.96837 89.28798,-39.78999 11.24412,-11.83713 10.61374,-8.9603 8.43178,-38.47981 -4.56291,-61.731 -19.76781,-121.37881 -44.42355,-174.2706 l -6.46058,-13.8593 -12.70131,-8.39954 c -24.45627,-16.1732 -50.02301,-25.31256 -79.362,-28.3696 -8.51543,-0.88728 -9.61737,-0.70244 -12.61816,2.11665 l -3.28791,3.08885 15.5754,5.21936 c 18.10978,6.06862 36.77635,15.02095 51.85389,24.86869 11.22383,7.33071 13.27084,10.06496 3.99083,5.33066 -15.78218,-8.05147 -44.20435,-17.15207 -66.23316,-21.20742 -23.20555,-4.272 -40.90848,-5.35851 -73.18115,-4.49146 -48.48857,1.3027 -70.96672,5.82298 -103.9073,20.89541 -9.03031,4.13195 -16.67261,7.25876 -16.98288,6.94848 -0.68864,-0.68864 17.51155,-12.37202 29.71623,-19.07595 11.0411,-6.06478 22.86053,-11.08102 39.76007,-16.87443 21.49989,-7.37046 14.94432,-11.16898 -11.61334,-6.72913 -25.17566,4.20879 -52.50728,15.48608 -71.99502,29.70584 -7.35028,5.36333 -8.71102,7.21078 -14.9493,20.2963 -27.1554,56.9617 -42.48448,118.2095 -46.1732,184.48644 l -0.92024,16.53444 11.09173,11.71765 c 25.33753,26.76734 57.8832,41.75556 91.51548,42.14548 l 11.11206,0.12884 z"
     id="path8"
     transform="scale(0.06)" />
  <path
     style="fill:#d4aa00;stroke-width:1.37104"
     d="m 445.85636,416.02786 c -13.88198,-6.93691 -21.21421,-18.67624 -21.35716,-34.1941 -0.35292,-38.31089 50.58625,-54.24328 71.66791,-22.41577 6.14608,9.27888 7.82647,19.30612 5.09221,30.38613 -6.28907,25.48506 -32.2709,37.78297 -55.40296,26.22374 z"
     id="path9"
     transform="scale(0.06)" />
  <path
     style="fill:#d4aa00;stroke-width:1.37104"
     d="m 329.45541,420.08197 c -10.90836,-2.01666 -20.05078,-8.84344 -25.84073,-19.29561 -3.59412,-6.48821 -4.04099,-8.59301 -4.02389,-18.9526 0.0164,-9.93286 0.55429,-12.66613 3.6425,-18.509 12.90473,-24.41558 42.84078,-27.68518 61.31547,-6.69683 23.39658,26.57992 -0.53057,69.84379 -35.09335,63.45404 z"
     id="path10"
     transform="scale(0.06)" />
  <path
     style="fill:#aa8800;stroke-width:1.37104"
     d="m 704.71294,753.69552 c -45.94671,-40.98734 -95.22765,-85.98012 -121.1061,-110.5681 -17.21675,-16.35821 -32.02395,-29.48623 -32.90488,-29.17338 -2.63804,0.93689 -1.40022,7.14615 7.26967,36.46646 4.54662,15.37601 8.26659,28.27318 8.26659,28.66038 0,0.38721 -94.4044,0.26161 -209.78756,-0.27908 -182.74376,-0.85638 -210.713,-1.25483 -216.96658,-3.09092 C 119.01437,669.70084 101.616,654.7979 91.694788,634.77595 L 85.689803,622.65733 V 358.62943 94.601542 l 3.281948,-8.911739 c 4.4061,-11.964239 12.697589,-24.796978 20.405749,-31.581972 3.48021,-3.063403 11.44928,-8.107685 17.70903,-11.209517 9.55999,-4.737162 13.30177,-5.807914 23.38136,-6.690845 6.59999,-0.578133 122.56317,-1.094998 257.69596,-1.14859 l 245.69599,-0.09744 8.79528,3.192516 c 23.91174,8.67949 42.3018,27.046454 48.96838,48.906884 2.68201,8.794543 2.71303,13.288791 2.35946,341.748131 l -0.35828,332.83638 z M 314.39672,499.551 c 5.79646,-7.64627 10.53901,-14.69706 10.53901,-15.66842 0,-0.97136 -3.54756,-3.08604 -7.88346,-4.69928 -4.3359,-1.61324 -11.73133,-5.07651 -16.43428,-7.69615 -10.13338,-5.64452 -30.34127,-21.39088 -28.31745,-22.06548 0.77755,-0.25918 8.57886,2.60321 17.33626,6.3609 30.77395,13.20466 62.21015,22.29492 86.24529,24.93913 17.20154,1.89243 53.37819,0.79501 69.70489,-2.11451 24.04333,-4.28465 58.49676,-15.93231 79.16923,-26.76471 5.47149,-2.86706 9.94816,-4.70425 9.94816,-4.08262 0,0.62162 -3.85604,4.25866 -8.56898,8.08233 -9.23222,7.49021 -30.17255,18.8007 -41.81662,22.58641 -3.95887,1.2871 -7.19795,2.84563 -7.19795,3.46338 0,0.61776 5.57701,7.81752 12.39335,15.99949 l 12.39334,14.87631 9.20049,-0.41608 c 11.82063,-0.53458 29.00876,-3.62261 40.17774,-7.21837 21.49205,-6.9192 47.84175,-24.13225 58.62228,-38.29528 l 4.6962,-6.16967 -0.81611,-18.509 C 611.38409,387.63695 596.96858,323.86017 575.8258,274.20737 566.23113,251.67475 562.31445,244.36189 558.42403,241.71648 548.80555,235.17609 529.0955,224.1097 520.994,220.70105 c -25.2671,-10.63096 -58.65637,-16.16537 -64.67353,-10.71992 -1.37901,1.24798 -2.50727,2.73973 -2.50727,3.31501 0,0.57526 5.08997,2.73055 11.31105,4.78951 6.22108,2.05897 16.7914,6.10928 23.48959,9.00072 12.23054,5.27957 34.32396,17.52796 33.35837,18.49354 -0.28416,0.28417 -4.25364,-1.00183 -8.82109,-2.85774 -13.55235,-5.50681 -39.22824,-12.87178 -56.35477,-16.16501 -14.60515,-2.8084 -19.85282,-3.07019 -59.88118,-2.98728 -57.22268,0.11851 -75.52982,3.01269 -108.811,17.202 -7.06113,3.01048 -13.09694,5.21507 -13.41293,4.89908 -1.83682,-1.83681 33.48756,-20.00106 52.94578,-27.2254 22.67412,-8.41832 26.04822,-12.10451 11.07962,-12.10451 -24.48392,0 -65.06346,14.20277 -87.24782,30.53661 -7.16056,5.27214 -9.22475,7.86637 -14.56783,18.30852 -26.05603,50.92208 -43.20993,117.65483 -47.51734,184.85379 l -1.22633,19.13166 6.34417,7.34843 c 7.78345,9.01553 18.76047,18.62777 29.66303,25.97501 20.87109,14.06503 41.48107,20.57694 65.8963,20.82056 l 13.79691,0.13767 z"
     id="path4"
     transform="scale(0.06)" />
  <path
     style="fill:#aa8800;stroke-width:1.37104"
     d="m 325.89913,418.24531 c -8.70469,-3.10503 -15.35494,-8.36134 -20.27395,-16.02436 -4.1744,-6.50304 -4.73435,-8.50878 -5.15954,-18.48126 -0.52949,-12.41885 1.64113,-19.37014 8.63082,-27.63976 20.80447,-24.61411 61.15111,-9.93943 63.51517,23.10142 0.61773,8.63348 0.28185,10.31019 -3.67557,18.34886 -8.81006,17.89578 -26.72882,26.51235 -43.03693,20.6951 z"
     id="path5"
     transform="scale(0.06)" />
  <path
     style="fill:#aa8800;stroke-width:1.37104"
     d="m 455.08737,418.40021 c -14.48477,-4.026 -25.11292,-13.99414 -28.70439,-26.92186 -4.87946,-17.56392 3.95136,-35.95105 21.18101,-44.10213 18.9088,-8.94546 39.54273,-2.48314 49.50663,15.50495 3.48294,6.28782 4.03817,8.72305 4.00859,17.58155 -0.0412,12.32727 -3.96264,21.15843 -13.035,29.35476 -9.65223,8.72021 -21.42844,11.78701 -32.95684,8.58273 z"
     id="path6"
     transform="scale(0.06)" />
</svg>
