<?xml version="1.0" encoding="UTF-8" standalone="no"?>
<!-- Uploaded to: SVG Repo, www.svgrepo.com, Generator: SVG Repo Mixer Tools -->

<svg
   width="800px"
   height="800px"
   viewBox="0 0 20 20"
   version="1.1"
   id="svg1"
   sodipodi:docname="github.svg"
   inkscape:export-filename="github.svg"
   inkscape:export-xdpi="96"
   inkscape:export-ydpi="96"
   inkscape:version="1.4.2 (f4327f4, 2025-05-13)"
   xmlns:inkscape="http://www.inkscape.org/namespaces/inkscape"
   xmlns:sodipodi="http://sodipodi.sourceforge.net/DTD/sodipodi-0.dtd"
   xmlns="http://www.w3.org/2000/svg"
   xmlns:svg="http://www.w3.org/2000/svg">
  <sodipodi:namedview
     id="namedview1"
     pagecolor="#ffffff"
     bordercolor="#000000"
     borderopacity="0.25"
     inkscape:showpageshadow="2"
     inkscape:pageopacity="0.0"
     inkscape:pagecheckerboard="0"
     inkscape:deskcolor="#d1d1d1"
     inkscape:zoom="1.45875"
     inkscape:cx="400.68552"
     inkscape:cy="400"
     inkscape:window-width="2560"
     inkscape:window-height="1369"
     inkscape:window-x="1912"
     inkscape:window-y="-8"
     inkscape:window-maximized="1"
     inkscape:current-layer="svg1" />
  <title
     id="title1">github [#142]</title>
  <desc
     id="desc1">Created with Sketch.</desc>
  <defs
     id="defs1" />
  <g
     id="Page-1"
     stroke="none"
     stroke-width="1"
     fill="none"
     fill-rule="evenodd">
    <g
       id="Dribbble-Light-Preview"
       transform="translate(-140.000000, -7559.000000)"
       fill="#000000">
      <g
         id="icons"
         transform="translate(56.000000, 160.000000)">
        <path
           d="M94,7399 C99.523,7399 104,7403.59 104,7409.253 C104,7413.782 101.138,7417.624 97.167,7418.981 C96.66,7419.082 96.48,7418.762 96.48,7418.489 C96.48,7418.151 96.492,7417.047 96.492,7415.675 C96.492,7414.719 96.172,7414.095 95.813,7413.777 C98.04,7413.523 100.38,7412.656 100.38,7408.718 C100.38,7407.598 99.992,7406.684 99.35,7405.966 C99.454,7405.707 99.797,7404.664 99.252,7403.252 C99.252,7403.252 98.414,7402.977 96.505,7404.303 C95.706,7404.076 94.85,7403.962 94,7403.958 C93.15,7403.962 92.295,7404.076 91.497,7404.303 C89.586,7402.977 88.746,7403.252 88.746,7403.252 C88.203,7404.664 88.546,7405.707 88.649,7405.966 C88.01,7406.684 87.619,7407.598 87.619,7408.718 C87.619,7412.646 89.954,7413.526 92.175,7413.785 C91.889,7414.041 91.63,7414.493 91.54,7415.156 C90.97,7415.418 89.522,7415.871 88.63,7414.304 C88.63,7414.304 88.101,7413.319 87.097,7413.247 C87.097,7413.247 86.122,7413.234 87.029,7413.87 C87.029,7413.87 87.684,7414.185 88.139,7415.37 C88.139,7415.37 88.726,7417.2 91.508,7416.58 C91.513,7417.437 91.522,7418.245 91.522,7418.489 C91.522,7418.76 91.338,7419.077 90.839,7418.982 C86.865,7417.627 84,7413.783 84,7409.253 C84,7403.59 88.478,7399 94,7399"
           id="github-[#142]" />
      </g>
    </g>
  </g>
  <path
     style="fill:#d4aa00;stroke-width:0.685518"
     d="M 274.19375,798.98996 C 265.30039,796.71678 237.42802,784.86156 220.88931,776.3174 102.36313,715.08504 21.272133,598.40051 3.7885041,463.92378 -0.22211147,433.07581 -0.478092,393.66194 3.1262411,361.95373 12.463557,279.81102 46.001762,202.95541 100.39118,139.06294 116.97845,119.5775 143.23537,95.089152 164.78041,79.010742 259.81983,8.0856884 379.12437,-16.324167 493.57326,11.739318 552.82035,26.26702 608.48328,55.049472 656.56668,96.02071 c 11.342,9.66438 33.53217,31.85071 43.04964,43.04223 58.67064,68.99038 92.41761,151.36034 99.00455,241.65121 1.03514,14.18862 0.86307,48.30698 -0.31588,62.6398 -5.84487,71.05802 -28.2337,136.58911 -66.67846,195.16535 -34.84202,53.0868 -82.17839,97.98634 -135.91102,128.91432 -19.91893,11.46516 -56.59349,28.00994 -69.3116,31.26821 -5.83528,1.49491 -11.81119,0.98825 -16.73034,-1.41847 -4.27007,-2.08912 -6.6911,-4.88199 -8.61007,-9.93227 -1.26946,-3.34094 -1.32109,-5.97601 -1.33395,-68.07822 -0.0145,-69.98722 -0.1031,-72.00175 -3.82032,-86.8635 -3.8244,-15.29025 -10.11918,-27.76336 -18.8106,-37.27316 -1.94864,-2.13211 -3.28066,-3.87783 -2.96005,-3.87937 0.32061,-0.002 5.92218,-0.77927 12.44794,-1.72829 44.17652,-6.42448 77.0032,-18.52279 103.54521,-38.16171 8.6581,-6.40629 22.61065,-20.37581 29.03223,-29.06754 18.89621,-25.57639 29.72874,-56.0639 34.57306,-97.30378 1.74819,-14.8824 1.77334,-50.94807 0.0432,-62.01351 -4.69659,-30.03882 -16.16208,-56.19931 -34.52407,-78.77261 l -4.6894,-5.7649 1.85652,-5.69602 c 4.24715,-13.03075 6.44331,-30.66791 5.79353,-46.5274 -0.68664,-16.75934 -3.32862,-31.04252 -8.84065,-47.79465 l -2.86921,-8.72009 -3.06052,-0.45896 c -5.07753,-0.76142 -17.79434,0.25981 -25.44132,2.04307 -21.42562,4.99643 -47.74619,17.52726 -74.62765,35.52914 l -7.10407,4.75742 -11.40492,-2.77357 C 458.79469,201.48974 431.54854,198.25601 400,198.25601 c -31.61151,0 -59.37573,3.30145 -88.81702,10.56126 l -11.35344,2.79959 -4.41349,-3.07775 c -6.00896,-4.19038 -20.6233,-13.08207 -29.77766,-18.11739 -15.70643,-8.63928 -33.7295,-15.87936 -47.64353,-19.13897 -7.48002,-1.75233 -21.77989,-2.87025 -26.17288,-2.04612 -2.33662,0.43835 -2.43119,0.58992 -4.87142,7.80743 -11.06536,32.7282 -12.29652,66.52194 -3.48165,95.56687 l 1.80403,5.94427 -4.57961,5.70955 c -15.41246,19.21524 -25.49,39.34679 -31.17192,62.27108 -3.44526,13.90025 -4.26913,20.8487 -4.67395,39.41926 -1.23687,56.73977 11.19519,103.39598 36.557,137.19462 5.43917,7.24856 16.94893,19.07559 24.54099,25.21747 26.51617,21.45126 64.32671,35.81807 110.4213,41.95663 4.90146,0.65275 9.02959,1.27389 9.17362,1.38032 0.14403,0.10643 -1.37399,1.97799 -3.3734,4.15901 -6.55765,7.15331 -11.92737,16.7245 -15.81008,28.18047 -2.05029,6.04943 -4.72878,17.51041 -4.72878,20.23397 0,1.41764 -0.81931,1.94828 -6.34105,4.10691 -15.66338,6.12333 -27.56097,8.3239 -42.28255,7.82057 -7.66571,-0.2621 -11.52149,-0.74472 -16.58215,-2.07561 -20.34455,-5.35031 -35.85277,-17.94654 -49.74344,-40.4031 -6.16304,-9.96357 -10.74592,-15.8279 -17.51811,-22.41647 -7.22585,-7.02991 -12.23922,-10.60795 -20.74607,-14.80644 -12.78013,-6.30752 -25.91134,-8.35133 -35.54651,-5.53264 -12.39296,3.62545 -8.96135,12.66795 9.47933,24.97862 15.77818,10.53322 30.4243,29.56165 39.68633,51.561 7.74044,18.38522 10.60806,23.12616 19.62755,32.44951 14.10176,14.57683 29.89784,22.58533 53.11649,26.92974 7.56463,1.41539 28.34731,1.94769 38.2589,0.97988 7.37676,-0.72028 21.35584,-2.86163 25.54474,-3.91301 l 1.71675,-0.43085 -0.19201,41.38194 c -0.1912,41.21 -0.1983,41.39379 -1.70794,44.21628 -2.05314,3.83856 -5.40023,7.05816 -8.9872,8.64486 -3.38823,1.49882 -11.56431,2.15486 -15.21742,1.22119 z"
     id="path1"
     transform="scale(0.025)" />
  <path
     style="fill:#aa8800;stroke-width:0.685518"
     d="M 267.35219,796.35462 C 256.19143,792.26831 240.81316,785.55263 226.9066,778.69224 100.19231,716.18098 14.370567,588.98739 2.3327512,445.85865 0.99392994,429.94017 0.78962605,392.8033 1.9597841,378.06341 8.7775047,292.18404 40.444644,213.2203 94.88144,146.35818 111.12943,126.40155 134.20491,103.85098 156.8986,85.75176 209.80968,43.552824 276.33618,14.710355 343.51965,4.8424652 c 17.30001,-2.541021 27.04573,-3.2583404 49.11561,-3.6150841 36.69356,-0.59312476 62.23272,2.0203393 96.13938,9.8380959 64.77272,14.934457 127.37393,48.16279 177.12285,94.015713 67.29757,62.02727 111.68215,143.64741 127.24417,233.99305 4.27819,24.83701 4.9247,32.70102 5.28939,64.33766 0.40158,34.83083 -0.32733,46.40125 -4.63513,73.57922 -13.30954,83.96965 -52.43866,161.66876 -112.046,222.49111 -33.92679,34.61827 -65.98677,58.08528 -106.94272,78.279 -18.44392,9.09389 -32.03117,15.0191 -43.13798,18.81173 -6.7855,2.31698 -8.01299,2.53052 -13.03334,2.26701 -4.48934,-0.23562 -6.24757,-0.67401 -9.25438,-2.30753 -3.94726,-2.14437 -7.01823,-6.063 -8.27718,-10.56192 -0.4094,-1.46296 -0.81616,-25.50896 -1.02669,-60.69203 -0.19176,-32.04798 -0.49227,-62.91898 -0.6678,-68.60221 -0.75117,-24.32093 -8.04467,-45.30952 -21.07982,-60.6617 l -3.82046,-4.49956 8.65802,-1.19292 c 44.06961,-6.07202 77.57553,-17.82591 104.32172,-36.59613 4.1342,-2.90134 10.78877,-8.83624 18.22257,-16.25184 10.07967,-10.055 12.58285,-13.00218 17.97789,-21.16663 13.15514,-19.90803 21.07796,-40.00848 26.52426,-67.29293 4.22044,-21.14327 4.78609,-27.88305 4.74647,-56.55527 -0.0322,-23.28514 -0.17403,-26.44963 -1.50576,-33.59041 -5.30745,-28.45866 -16.35393,-52.91208 -33.76516,-74.74544 l -4.70997,-5.90623 1.72754,-5.43251 c 6.96994,-21.91807 7.62897,-52.43859 1.68124,-77.86036 -1.83616,-7.84812 -6.8537,-24.01999 -7.81192,-25.17834 -1.17272,-1.41765 -20.85259,-0.59254 -28.57131,1.19791 -21.01894,4.87558 -48.34999,17.88419 -75.06427,35.72794 l -6.85518,4.57891 -4.79863,-1.24683 C 435.43627,194.4529 372.92368,193.88025 311.91088,208.32413 l -11.99657,2.84001 -4.79863,-3.30621 c -13.96107,-9.61905 -39.45836,-23.67392 -51.75664,-28.52979 -20.07467,-7.92632 -30.54244,-10.30917 -45.39799,-10.33427 l -8.03724,-0.0136 -0.97081,1.88518 c -0.53394,1.03684 -2.07039,5.36269 -3.41433,9.61299 -9.88178,31.25186 -10.69949,63.70253 -2.32922,92.43471 l 1.62002,5.56098 -2.99856,3.69351 c -17.35942,21.38269 -28.50484,44.47053 -34.04839,70.53157 -2.36562,11.12114 -3.13612,21.12304 -3.11572,40.44559 0.0504,47.75443 8.83862,85.22214 27.31089,116.43738 11.75487,19.86387 29.90156,38.20166 49.79113,50.31548 24.36719,14.84092 56.02731,25.32561 91.5131,30.30581 4.3359,0.60851 8.73055,1.27356 9.76587,1.47789 l 1.88242,0.3715 -3.67568,4.33269 c -9.83809,11.59658 -16.08791,26.40449 -20.06326,47.53654 -0.35821,1.90417 -3.94564,3.62081 -14.98733,7.1717 -11.78831,3.791 -19.65716,4.84083 -33.13843,4.42123 -13.31032,-0.41429 -18.74116,-1.61459 -28.7992,-6.3651 -15.27788,-7.21588 -24.46766,-16.20619 -38.82554,-37.98279 -11.06874,-16.78798 -21.81535,-27.2364 -34.84935,-33.88238 -14.5996,-7.44428 -28.93176,-9.74796 -38.85785,-6.24583 -4.50651,1.58999 -6.16373,3.43703 -6.16373,6.86974 0,4.78044 4.7264,10.10553 15.76692,17.76407 7.5437,5.23289 20.35605,18.15963 26.20128,26.43522 5.20818,7.37365 10.97515,18.17655 16.58491,31.06743 4.88227,11.21916 8.09982,16.67193 13.64462,23.12351 15.2347,17.72611 37.47587,28.90267 62.79044,31.55329 12.33157,1.29118 35.19954,0.47904 47.95845,-1.70317 5.79631,-0.9914 10.7427,-1.92857 10.99197,-2.0826 0.41593,-0.25707 0.31395,51.96106 -0.14384,73.65422 -0.21142,10.0183 -0.42835,10.76223 -4.4301,15.19171 -3.81697,4.22492 -7.02098,5.53878 -14.2147,5.82889 -5.76533,0.23253 -6.64139,0.0761 -13.3676,-2.38663 z"
     id="path2"
     transform="scale(0.025)" />
</svg>
