<?xml version="1.0" encoding="UTF-8" standalone="no"?>
<!-- Created with Inkscape (http://www.inkscape.org/) -->

<svg
   width="24pc"
   height="23.997972pc"
   viewBox="0 0 359.99999 359.9696"
   id="svg5027"
   version="1.1"
   inkscape:version="1.4.2 (f4327f4, 2025-05-13)"
   sodipodi:docname="instagram.svg"
   inkscape:export-filename="instagram.svg"
   inkscape:export-xdpi="96"
   inkscape:export-ydpi="96"
   xmlns:inkscape="http://www.inkscape.org/namespaces/inkscape"
   xmlns:sodipodi="http://sodipodi.sourceforge.net/DTD/sodipodi-0.dtd"
   xmlns="http://www.w3.org/2000/svg"
   xmlns:svg="http://www.w3.org/2000/svg"
   xmlns:rdf="http://www.w3.org/1999/02/22-rdf-syntax-ns#"
   xmlns:cc="http://creativecommons.org/ns#"
   xmlns:dc="http://purl.org/dc/elements/1.1/">
  <defs
     id="defs5029" />
  <sodipodi:namedview
     id="base"
     pagecolor="#ffffff"
     bordercolor="#666666"
     borderopacity="1.0"
     inkscape:pageopacity="0.0"
     inkscape:pageshadow="2"
     inkscape:zoom="1"
     inkscape:cx="6.5"
     inkscape:cy="225.5"
     inkscape:document-units="px"
     inkscape:current-layer="layer1"
     showgrid="false"
     units="pc"
     fit-margin-top="2"
     fit-margin-left="2"
     fit-margin-right="2"
     fit-margin-bottom="2"
     inkscape:window-width="2560"
     inkscape:window-height="1369"
     inkscape:window-x="1912"
     inkscape:window-y="-8"
     inkscape:window-maximized="1"
     inkscape:showpageshadow="2"
     inkscape:pagecheckerboard="0"
     inkscape:deskcolor="#d1d1d1" />
  <metadata
     id="metadata5032">
    <rdf:RDF>
      <cc:Work
         rdf:about="">
        <dc:format>image/svg+xml</dc:format>
        <dc:type
           rdf:resource="http://purl.org/dc/dcmitype/StillImage" />
        <dc:title />
      </cc:Work>
    </rdf:RDF>
  </metadata>
  <g
     inkscape:label="Camada 1"
     inkscape:groupmode="layer"
     id="layer1"
     transform="translate(-77.12909,-99.75057)">
    <path
       inkscape:connector-curvature="0"
       style="fill:#000000;fill-opacity:1;fill-rule:nonzero;stroke:none"
       d="m 257.12909,129.76098 c -40.73362,0 -45.84008,0.25899 -61.83741,0.91733 -15.96445,0.7292 -26.846,3.22727 -36.38561,6.93669 -9.8635,3.83171 -18.26206,8.98306 -26.60017,17.32165 -8.33835,8.33859 -13.44169,16.69125 -17.27412,26.55409 -3.70877,9.54051 -6.25479,20.46653 -6.98302,36.43098 -0.73154,15.99732 -0.91968,21.10396 -0.91968,61.83716 0,40.73554 0.18808,45.83984 0.91968,61.83717 0.72919,15.96445 3.27425,26.84576 6.98302,36.38633 3.83243,9.86278 8.93577,18.21549 17.27412,26.55403 8.33811,8.33859 16.73667,13.48525 26.60017,17.3193 9.53961,3.70708 20.42116,6.25455 36.38561,6.98374 15.99733,0.7292 21.10379,0.87029 61.83741,0.87029 40.73362,0 45.83984,-0.23496 61.8374,-0.87029 15.96422,-0.72919 26.89185,-3.27666 36.43147,-6.98374 9.8635,-3.83405 18.21621,-8.98071 26.55432,-17.3193 8.33835,-8.33854 13.44145,-16.69125 17.27388,-26.55403 3.70876,-9.54057 6.25503,-20.42188 6.98326,-36.38633 0.73154,-15.99733 0.91968,-21.10163 0.91968,-61.83717 0,-40.7332 -0.18808,-45.83984 -0.91968,-61.83716 -0.7292,-15.96445 -3.2745,-26.89047 -6.98326,-36.43098 -3.83243,-9.86284 -8.93553,-18.2155 -17.27388,-26.55409 -8.33811,-8.33859 -16.69082,-13.48994 -26.55432,-17.32165 -9.53962,-3.70942 -20.46725,-6.20749 -36.43147,-6.93669 -15.99732,-0.72919 -21.10378,-0.91733 -61.8374,-0.91733 z m 0,27.01275 c 40.04775,0 44.78087,0.23495 60.59684,0.87028 14.623,0.65865 22.60141,3.13785 27.88658,5.19137 7.00117,2.72149 11.98006,5.96281 17.22809,11.21061 5.24894,5.24779 8.48978,10.2274 11.20964,17.22754 2.05353,5.28542 4.52401,13.26413 5.19155,27.88544 0.71982,15.81622 0.87269,20.5512 0.87269,60.59757 0,40.04865 -0.16464,44.78369 -0.87269,60.59756 -0.66802,14.62366 -3.13802,22.55533 -5.19155,27.84074 -2.71986,7.00014 -5.9607,12.02211 -11.20964,17.27225 -5.24803,5.2478 -10.22692,8.48912 -17.22809,11.2106 -5.28517,2.04643 -13.26358,4.48099 -27.88658,5.14667 -15.81363,0.72913 -20.54555,0.87028 -60.59684,0.87028 -40.0513,0 -44.78322,-0.23495 -60.59684,-0.87028 -14.62301,-0.65865 -22.55557,-3.09321 -27.84074,-5.14667 -7.0011,-2.72148 -12.0259,-5.9628 -17.27394,-11.2106 -5.24773,-5.25014 -8.48863,-10.27211 -11.20964,-17.27225 -2.05352,-5.28541 -4.47792,-13.21708 -5.14546,-27.84074 -0.71982,-15.81387 -0.87269,-20.54891 -0.87269,-60.59756 0,-40.04637 0.16465,-44.78135 0.87269,-60.59757 0.66803,-14.62131 3.09194,-22.60002 5.14546,-27.88544 2.72101,-7.00014 5.96191,-11.97975 11.20964,-17.22754 5.24804,-5.2478 10.27284,-8.48912 17.27394,-11.21061 5.28517,-2.04643 13.21773,-4.52334 27.84074,-5.19137 15.81597,-0.72913 20.54909,-0.87028 60.59684,-0.87028 z m 80.07621,24.90046 c -9.93951,0 -18.0092,8.06807 -18.0092,18.00848 0,9.94042 8.06969,18.00854 18.0092,18.00854 9.94066,0 18.00896,-8.06812 18.00896,-18.00854 0,-9.94041 -8.0683,-18.00848 -18.00896,-18.00848 z m -80.07621,21.04051 c -42.53614,0 -76.99809,34.50924 -76.99809,77.04418 0,42.53735 34.46195,76.99713 76.99809,76.99713 42.53614,0 77.04394,-34.45978 77.04394,-76.99713 0,-42.53494 -34.5078,-77.04418 -77.04394,-77.04418 z m 0,27.0598 c 27.61161,0 49.98438,22.37415 49.98438,49.98438 0,27.61257 -22.37277,49.98438 -49.98438,49.98438 -27.61161,0 -49.98444,-22.37181 -49.98444,-49.98438 0,-27.61023 22.37283,-49.98438 49.98444,-49.98438 z"
       id="path4642" />
    <path
       style="fill:#d4aa00;stroke-width:0.353553"
       d="m 181.56131,273.27468 c -27.37191,-3.72499 -50.6829,-20.38526 -62.94279,-44.98498 -14.41497,-28.92391 -10.30543,-63.85285 10.42841,-88.63611 12.69742,-15.17729 29.67172,-24.95719 49.49753,-28.51846 5.15002,-0.92509 16.63023,-1.27711 21.95622,-0.67326 18.91442,2.14451 36.29132,10.46947 49.46239,23.69653 12.53332,12.5866 20.44666,28.37821 23.21673,46.33061 0.86855,5.62891 0.86855,17.35205 0,22.98097 -1.37023,8.88023 -3.84287,16.8133 -7.66931,24.60575 -12.17482,24.79372 -35.71195,41.57687 -63.39841,45.20625 -5.09862,0.66837 -15.61325,0.66464 -20.55077,-0.007 z m 16.00058,-28.10219 c 9.32277,-1.00566 18.01494,-4.30669 25.88385,-9.82993 3.6049,-2.5303 10.16256,-9.30674 12.69406,-13.11757 6.29801,-9.48079 9.22625,-19.08014 9.22625,-30.2455 0,-39.99017 -42.05873,-65.69037 -77.75869,-47.51485 -12.71998,6.47598 -22.1558,17.56488 -26.46915,31.10633 -2.05918,6.46466 -2.37057,8.66677 -2.34523,16.5853 0.0195,6.07395 0.14717,7.80708 0.78862,10.70066 2.84363,12.82773 9.8936,23.99775 20.04776,31.7638 10.61172,8.11601 24.55543,11.99476 37.93253,10.55176 z"
       id="path5"
       transform="matrix(0.9375,0,0,0.9375,77.12909,99.75057)" />
    <path
       style="fill:#d4aa00;stroke-width:0.353553"
       d="m 161.22035,351.56907 c -38.75788,-0.31444 -48.54112,-1.02907 -62.402177,-4.55825 -16.320774,-4.15545 -28.417165,-10.89513 -39.626349,-22.0784 -9.970521,-9.94746 -15.918038,-19.7284 -20.43391,-33.60443 -5.622442,-17.2762 -6.568836,-31.53093 -6.572423,-98.99495 -0.0029,-53.86326 0.653014,-72.28101 3.040596,-85.38314 C 39.053226,85.948034 46.955991,70.577809 60.649129,57.50419 74.717962,44.071873 92.558612,36.455615 115.78874,33.964829 c 11.70671,-1.255221 21.45462,-1.437917 76.72108,-1.437917 55.25338,0 63.38444,0.154474 75.7818,1.439702 19.6078,2.03273 36.45279,8.328731 49.34821,18.444442 3.75066,2.942168 12.07841,11.478523 14.97426,15.349343 9.13935,12.216397 14.98168,27.815922 17.19305,45.907021 1.48852,12.17743 1.97536,31.47791 1.97536,78.31207 0,56.83624 -0.63918,73.26215 -3.39129,87.15091 -2.87393,14.50347 -8.09576,26.77852 -15.7689,37.06818 -2.86513,3.84212 -11.18539,12.36305 -14.99353,15.35513 -14.0385,11.03016 -32.26444,17.34187 -54.76183,18.96425 -14.60831,1.05347 -52.74549,1.44783 -101.6466,1.05111 z m 90.86322,-28.92374 c 18.8192,-0.96114 28.86503,-2.93865 38.64445,-7.60709 15.13902,-7.22699 25.43302,-21.05272 29.38023,-39.46017 2.17857,-10.15958 2.55444,-16.82146 3.0847,-54.67384 0.42673,-30.46183 0.0306,-79.81697 -0.74995,-93.44823 -1.23951,-21.64545 -5.70626,-35.088476 -15.27704,-45.977532 -8.21306,-9.344324 -18.88748,-15.085497 -33.4455,-17.988467 -10.32634,-2.059142 -21.87685,-2.503491 -71.31114,-2.743339 -50.48397,-0.244942 -74.81027,0.276742 -86.44381,1.85381 -14.56327,1.974229 -25.971305,6.657204 -34.206801,14.041817 -7.725792,6.927568 -12.203641,13.720308 -15.611422,23.681971 -2.717169,7.94286 -3.919846,15.68267 -4.710398,30.31372 -0.635404,11.75966 -0.634344,111.3793 0.0013,122.8598 1.013679,18.30806 2.960073,27.68752 7.850398,37.83021 4.463222,9.25687 13.069048,18.0547 22.297583,22.79508 8.371359,4.30007 17.14657,6.66387 28.79875,7.75759 4.15462,0.38996 20.0262,1.05056 29.34493,1.22138 14.18097,0.25994 95.41926,-0.10255 102.35371,-0.45671 z"
       id="path7"
       transform="matrix(0.9375,0,0,0.9375,77.12909,99.75057)" />
    <path
       style="fill:#d4aa00"
       d="m 270.49142,123.63502 c -16.69607,-7.58486 -14.5356,-31.091956 3.23601,-35.209545 8.17155,-1.893307 17.28674,3.074588 20.71952,11.292406 4.18139,10.009939 -1.64602,21.799209 -12.228,24.738109 -5.12562,1.42353 -7.08948,1.28605 -11.72753,-0.82097 z"
       id="path8"
       transform="matrix(0.9375,0,0,0.9375,77.12909,99.75057)" />
    <path
       style="fill:#aa8800"
       d="M 134.5,350.4818 C 113.53185,349.76476 103.55824,348.27133 90.833021,343.94321 62.5752,334.3321 42.169759,309.95162 36.059808,278.5 35.472156,275.475 34.550419,267.6 34.011503,261 32.712041,245.08574 32.721767,138.21685 34.024136,122.17829 36.489481,91.817817 46.452411,70.214451 65.281622,54.400353 76.148631,45.273472 88.696422,39.576182 106.02857,35.899315 115.71072,33.845329 176.73942,32.743654 231.5,33.634336 c 33.75207,0.548978 40.21106,0.902937 48,2.630445 35.8238,7.945355 58.31567,29.315954 67.01429,63.673468 4.03971,15.955911 4.71275,32.514531 4.19497,103.207871 -0.49922,68.15988 -0.7261,71.53394 -5.87391,87.35388 -10.05232,30.89217 -33.41234,50.96348 -66.92546,57.50344 -15.61976,3.04814 -89.44156,4.3239 -143.40989,2.47836 z m 126.3507,-28.05188 c 21.5439,-2.01807 33.67215,-6.69356 44.16669,-17.02642 6.86262,-6.7569 13.24149,-18.82679 15.53959,-29.4035 3.06736,-14.11717 4.49271,-96.33338 2.43579,-140.5 C 321.8881,111.78049 319.96495,102.03653 314.2323,91.113659 304.74814,73.042738 288.34374,63.924816 261,61.525986 246.25182,60.232147 139.23702,60.222039 123.65521,61.513013 99.121518,63.545662 84.67413,70.171393 74.105342,84.237125 69.090133,90.91174 66.376731,96.894341 63.875024,106.79328 c -1.838582,7.27504 -2.154436,12.53716 -2.7822,46.35144 -0.389487,20.9796 -0.385226,55.6296 0.0095,77 0.808891,43.79664 1.310682,47.67953 7.88563,61.0195 9.456118,19.18562 26.582246,29.20179 53.478847,31.27698 15.68695,1.21032 125.43826,1.20137 138.38393,-0.0113 z"
       id="path1"
       transform="matrix(0.9375,0,0,0.9375,77.12909,99.75057)" />
    <path
       style="fill:#aa8800"
       d="m 136,350.259 c -3.025,-0.40755 -8.2,-0.69363 -11.5,-0.63573 -3.3,0.0579 -6.675,-0.12163 -7.5,-0.39895 -1.31271,-0.44127 -12.83115,-2.29845 -18.5,-2.98286 -1.1,-0.1328 -2.225,-0.46886 -2.5,-0.74679 -0.275,-0.27794 -2.3,-1.1099 -4.5,-1.84882 C 67.881433,335.71306 48.006493,315.4567 39.845441,291 c -0.734126,-2.2 -1.562175,-4.225 -1.840108,-4.5 -0.277933,-0.275 -0.601348,-1.82 -0.7187,-3.43334 -0.117352,-1.61334 -0.52176,-3.63834 -0.898686,-4.5 -0.376925,-0.86166 -0.587194,-2.57162 -0.467263,-3.79991 0.119931,-1.22828 -0.0816,-2.71809 -0.447838,-3.31069 -0.986258,-1.5958 -1.257404,-9.21485 -1.528715,-42.95606 -0.136266,-16.94652 -0.549444,-28.05593 -0.929793,-25 -0.5074,4.07672 -0.682403,2.3424 -0.676269,-6.70199 0.0046,-6.7111 0.380348,-11.97204 0.835103,-11.69098 0.454756,0.28105 0.920859,-14.02805 1.035786,-31.79801 0.227797,-35.22188 0.31434,-38.57377 1.05366,-40.80902 0.272873,-0.825 1.281336,-5.1 2.241029,-9.5 7.488334,-34.332537 29.246732,-56.696831 63.655683,-65.42828 9.91978,-2.517193 13.10077,-2.686274 67.34067,-3.579408 46.32103,-0.762739 106.8977,0.745398 112.5,2.800837 0.825,0.302686 4.65,1.542297 8.5,2.754691 29.16677,9.184834 50.7003,32.566002 56.80736,61.68161 0.60803,2.8988 1.35011,5.2728 1.64907,5.27555 0.29897,0.003 0.69531,3.93421 0.88077,8.73659 0.18546,4.80237 0.536,9.05324 0.77897,9.44638 0.58669,0.94927 0.37337,124.64232 -0.23594,136.81203 -0.61219,12.22735 -1.78997,19.06378 -4.83478,28.06345 -1.35236,3.99722 -2.22676,7.64318 -1.94312,8.10212 0.28364,0.45894 0.0937,0.83443 -0.42199,0.83443 -0.51574,0 -1.51384,1.39094 -2.21802,3.09097 -5.72294,13.81639 -21.24455,29.53592 -36.96232,37.43364 -6.33273,3.18201 -18.49437,7.47539 -21.17515,7.47539 -1.00367,0 -1.82485,0.43588 -1.82485,0.96862 0,0.53273 -0.675,0.70959 -1.5,0.39301 -0.825,-0.31659 -2.2875,-0.27016 -3.25,0.10317 -0.9625,0.37333 -7.375,0.88051 -14.25,1.12706 -6.875,0.24656 -13.92448,0.67751 -15.6655,0.95768 -5.1511,0.8289 -103.34054,1.01701 -109.3345,0.20946 z m 137.5,-29.02995 c 11.61188,-2.57288 25.5,-8.47007 25.5,-10.82783 0,-0.49567 0.58367,-0.90122 1.29705,-0.90122 3.28458,0 13.41649,-13.48918 17.28752,-23.01585 2.6478,-6.51627 3.14641,-9.02772 4.66242,-23.48415 1.24422,-11.86476 1.60935,-120.83315 0.46068,-137.4887 C 321.90808,113.91733 319.67172,101.68404 317.67835,98 317.08316,96.9 316.50088,95.430802 316.38439,94.735116 315.93118,92.028443 310.40105,83.757659 305.75952,78.844714 298.96713,71.655137 285.61979,64.998596 274,63.00571 c -10.33159,-1.771949 -20.32857,-2.003933 -85.5,-1.984067 -69.60713,0.02122 -71.18278,0.06478 -80.31684,2.220244 -13.317283,3.142629 -21.374943,7.359056 -29.316709,15.3409 -6.611148,6.64451 -13.431965,18.200126 -14.117373,23.917213 -0.164846,1.375 -0.573916,2.95 -0.909046,3.5 -2.909448,4.77486 -4.518,74.97474 -2.944434,128.5 1.083356,36.85064 1.74443,43.35236 5.181973,50.96505 4.85715,10.75653 6.759095,13.74193 12.571105,19.73233 9.381532,9.66947 22.786974,15.37431 40.618874,17.28581 3.97785,0.42641 38.73245,0.66764 77.23245,0.53608 58.93674,-0.2014 71.10633,-0.48434 77,-1.79022 z"
       id="path2"
       transform="matrix(0.9375,0,0,0.9375,77.12909,99.75057)" />
    <path
       style="fill:#aa8800"
       d="M 179.5,272.50801 C 148.0853,266.87833 123.39016,245.06015 113.84303,214.5 111.82312,208.03431 111.5,204.93138 111.5,192 c 0,-12.93138 0.32312,-16.03431 2.34303,-22.5 8.10163,-25.93314 26.65271,-45.40625 51.75212,-54.32431 37.9021,-13.46699 81.0285,4.31725 98.99462,40.82288 C 270.74288,168.50116 273,178.16316 273,192 c 0,13.83684 -2.25712,23.49884 -8.41023,36.00143 -10.21103,20.74796 -28.94203,36.16358 -51.58977,42.45841 -8.5351,2.37229 -25.80081,3.4279 -33.5,2.04817 z m 26.49244,-28.49332 c 20.32138,-5.40765 35.94621,-22.89215 39.18196,-43.84544 4.17246,-27.01895 -12.91122,-53.19144 -39.30536,-60.21649 -6.89099,-1.8341 -20.84686,-1.83417 -27.73762,-1.2e-4 -14.60985,3.88855 -27.71851,14.63535 -34.11788,27.97066 -8.13228,16.94641 -7.92375,33.44008 0.62853,49.71511 6.37923,12.13969 21.09497,23.72532 33.97636,26.74943 6.13714,1.44079 21.33599,1.2336 27.37401,-0.37315 z"
       id="path3"
       transform="matrix(0.9375,0,0,0.9375,77.12909,99.75057)" />
    <path
       style="fill:#aa8800"
       d="M 270.5,122.89581 C 263.34914,118.98905 260,113.75935 260,106.5 260,98.524286 264.78789,92.045227 272.58284,89.47266 283.13441,85.990328 295,95.122539 295,106.72576 c 0,9.02672 -7.28853,16.86206 -16.24016,17.45856 -3.55152,0.23666 -6.2342,-0.18183 -8.25984,-1.28851 z"
       id="path4"
       transform="matrix(0.9375,0,0,0.9375,77.12909,99.75057)" />
  </g>
</svg>
